<svg xmlns="http://www.w3.org/2000/svg" width="208.362" height="49.313" viewBox="0 0 208.362 49.313"><g transform="translate(-0.3)"><g transform="translate(0.3)"><path d="M16.749,35.263c0,6.814-4.364,13.629-13.092,13.629-.839,0-2.35-.034-3.357-.1V21.768C1.307,21.7,2.818,21.6,3.657,21.6,12.385,21.6,16.749,28.381,16.749,35.263Zm-1.141,0c0-6.244-3.961-12.488-11.917-12.488-.537,0-1.578.034-2.216.067V47.683c.671.034,1.645.034,2.216.034C11.613,47.717,15.607,41.506,15.607,35.263Z" transform="translate(-0.3 -14.349)"/><path d="M64.841,22.1V49.123H63.7V22.1Z" transform="translate(-42.417 -14.681)"/><path d="M83.789,42.49l-2.014,5.237H80.6L91.006,20.1l10.406,27.661H100.2l-2.753-7.284-.47-1.141L91.006,23.39,85,39.3l-.436,1.141L85,39.3" transform="translate(-53.644 -13.353)"/><path d="M156.1,47.229V19.3l9.97,18.631L176.04,19.3V47.229H174.9V23.9l-8.8,16.516L157.241,23.9v23.33Z" transform="translate(-103.8 -12.821)"/><path d="M242.964,21a13.868,13.868,0,0,1,13.864,13.864,13.869,13.869,0,0,1-27.728,0A13.911,13.911,0,0,1,242.964,21Zm0,26.217a12.4,12.4,0,0,0,12.689-12.353,12.689,12.689,0,1,0-25.378,0A12.4,12.4,0,0,0,242.964,47.217Z" transform="translate(-152.294 -13.951)"/><path d="M325.5,46.831V18.7l14.938,23.867V19.841h1.141V46.831L326.641,22.963V46.831Z" transform="translate(-216.334 -12.423)"/><path d="M405.949,35.263c0,6.814-4.364,13.629-13.092,13.629-.839,0-2.35-.034-3.357-.1V21.768c1.007-.067,2.518-.168,3.357-.168C401.585,21.6,405.949,28.381,405.949,35.263Zm-1.175,0c0-6.244-3.961-12.488-11.917-12.488-.537,0-1.578.034-2.216.067V47.683c.671.034,1.645.034,2.216.034C400.813,47.717,404.774,41.506,404.774,35.263Z" transform="translate(-258.85 -14.349)"/><path d="M452.8,34.408V7.419h15.274V8.56H453.941V18.731h11.581v1.175H453.941v13.36h14.133v1.141ZM463.039,5.136,457.2.94l.7-.94,5.841,4.2Z" transform="translate(-300.901)"/><path d="M512.7,48.89V21.9c1.007-.067,2.115-.1,2.954-.1,8.728,0,13.092,4.565,13.092,9.03,0,3.29-2.283,6.512-6.781,8.057l7.352,9.7-.94.7-7.654-10.037a19.6,19.6,0,0,1-5.1.571c-.571,0-1.141-.034-1.813-.067v9.2H512.7Zm1.175-25.915V38.551c.6.034,1.276.067,1.813.067,7.956,0,11.917-3.894,11.917-7.822s-3.961-7.855-11.917-7.855C515.117,22.941,514.513,22.941,513.875,22.975Z" transform="translate(-340.693 -14.482)"/><path d="M575.5,49.089V22.1h15.274v1.141H576.641V33.413h11.581v1.175H576.641v13.36h14.133v1.141Z" transform="translate(-382.412 -14.681)"/></g><line x2="69.488" transform="translate(0.334 44.829)" fill="none" stroke="#707070" stroke-miterlimit="10" stroke-width="0.5"/><line x2="69.521" transform="translate(138.705 44.829)" fill="none" stroke="#707070" stroke-miterlimit="10" stroke-width="0.5"/><rect width="59.887" height="9.332" transform="translate(74.152 39.981)" fill="none"/><text transform="translate(79.595 47.313)" font-size="11" font-family="TimesNewRomanPS-ItalicMT, Times New Roman" font-style="italic"><tspan x="0" y="0">Since 1890</tspan></text></g></svg>